<svg width="16" height="17" viewBox="0 0 16 17" fill="none" xmlns="http://www.w3.org/2000/svg">
<rect y="0.5" width="16" height="16" rx="2" fill="#9933FF"/>
<path fill-rule="evenodd" clip-rule="evenodd" d="M5.90077 12.2234L3.02499 9.34758C2.72507 9.04765 2.72507 8.56138 3.02499 8.26146C3.32491 7.96154 3.81118 7.96154 4.11111 8.26146L6.44383 10.5942L11.7774 5.26059C12.0774 4.96066 12.5636 4.96066 12.8635 5.26059C13.1635 5.56051 13.1635 6.04678 12.8635 6.3467L6.99271 12.2175C6.99079 12.2195 6.98886 12.2214 6.98692 12.2234C6.70293 12.5074 6.25187 12.5225 5.95013 12.2686C5.93817 12.2586 5.92644 12.2481 5.91497 12.2372C5.91019 12.2327 5.90546 12.228 5.90077 12.2234Z" fill="white" fill-opacity="0.9"/>
</svg>
