<svg width="24" height="24" viewBox="0 0 24 24" fill="none" xmlns="http://www.w3.org/2000/svg">
<path fill-rule="evenodd" clip-rule="evenodd" d="M5.97865 4.72934C5.67457 4.4242 5.18155 4.4242 4.87747 4.72934C4.57339 5.03448 4.57339 5.5292 4.87748 5.83434L11.0225 12.0007L4.87747 18.167C4.57339 18.4722 4.57339 18.9669 4.87748 19.272C5.18156 19.5772 5.67457 19.5772 5.97865 19.272L12.6675 12.5599C12.6698 12.5577 12.672 12.5555 12.6743 12.5532C12.8453 12.3816 12.9201 12.15 12.8988 11.9258C12.896 11.8968 12.8916 11.8679 12.8856 11.8393C12.8556 11.696 12.7852 11.5595 12.6743 11.4481C12.6723 11.4462 12.6704 11.4443 12.6685 11.4424L5.97865 4.72934Z" fill="#333236" fill-opacity="0.6"/>
<path fill-rule="evenodd" clip-rule="evenodd" d="M14.3785 4.72934C14.0745 4.4242 13.5815 4.4242 13.2774 4.72934C12.9733 5.03448 12.9733 5.5292 13.2774 5.83434L19.4224 12.0007L13.2774 18.167C12.9733 18.4722 12.9733 18.9669 13.2774 19.272C13.5815 19.5772 14.0745 19.5772 14.3785 19.272L21.0674 12.5599C21.0697 12.5577 21.0719 12.5555 21.0742 12.5532C21.2452 12.3816 21.32 12.15 21.2987 11.9258C21.2959 11.8968 21.2915 11.8679 21.2855 11.8393C21.2555 11.696 21.1851 11.5595 21.0742 11.4481C21.0722 11.4462 21.0703 11.4443 21.0684 11.4424L14.3785 4.72934Z" fill="#333236" fill-opacity="0.6"/>
</svg>
