<svg width="20" height="20" viewBox="0 0 20 20" fill="none" xmlns="http://www.w3.org/2000/svg">
<path fill-rule="evenodd" clip-rule="evenodd" d="M7.98227 3.9412C7.72887 3.68692 7.31802 3.68692 7.06462 3.9412C6.81122 4.19548 6.81122 4.60775 7.06462 4.86203L12.1855 10.0006L7.06462 15.1393C6.81122 15.3936 6.81122 15.8058 7.06462 16.0601C7.31802 16.3144 7.72887 16.3144 7.98227 16.0601L13.5563 10.4667C13.5582 10.4648 13.5601 10.463 13.562 10.4611C13.7045 10.3181 13.7668 10.125 13.749 9.93827C13.7467 9.9141 13.7431 9.89004 13.7381 9.8662C13.7131 9.74674 13.6544 9.63296 13.5619 9.54021C13.5603 9.53859 13.5587 9.53699 13.5571 9.5354L7.98227 3.9412Z" fill="#333236"/>
</svg>
