<svg width="20" height="20" viewBox="0 0 20 20" fill="none" xmlns="http://www.w3.org/2000/svg">
<path fill-rule="evenodd" clip-rule="evenodd" d="M12.0177 3.9412C12.2711 3.68692 12.682 3.68692 12.9354 3.9412C13.1888 4.19548 13.1888 4.60775 12.9354 4.86203L7.81455 10.0006L12.9354 15.1393C13.1888 15.3936 13.1888 15.8058 12.9354 16.0601C12.682 16.3144 12.2711 16.3144 12.0177 16.0601L6.44367 10.4667C6.44179 10.4648 6.43991 10.463 6.43805 10.4611C6.29551 10.3181 6.23315 10.125 6.25097 9.93827C6.25322 9.91472 6.25674 9.89126 6.26153 9.86802C6.28632 9.7479 6.34515 9.63343 6.43806 9.54021C6.43966 9.53859 6.44128 9.53699 6.44289 9.5354L12.0177 3.9412Z" fill="#333236"/>
</svg>
