<svg width="current" height="current" viewBox="0 0 24 24" fill="none" xmlns="http://www.w3.org/2000/svg">
<path fill-rule="evenodd" clip-rule="evenodd" d="M16.4277 8.20812C16.6034 8.03238 16.6034 7.74746 16.4277 7.57173C16.2519 7.396 15.967 7.39601 15.7913 7.57176L11.9998 11.3637L8.20823 7.57176C8.0325 7.39601 7.74757 7.396 7.57183 7.57173C7.39609 7.74746 7.39607 8.03238 7.5718 8.20812L11.3634 12.0001L7.57179 15.7921C7.39606 15.9678 7.39608 16.2527 7.57182 16.4284C7.74756 16.6042 8.03249 16.6042 8.20822 16.4284L11.9998 12.6365L15.7913 16.4284C15.967 16.6042 16.252 16.6042 16.4277 16.4284C16.6034 16.2527 16.6035 15.9678 16.4277 15.7921L12.6361 12.0001L16.4277 8.20812Z" fill="white" stroke="white" stroke-linecap="round"/>
</svg>
