<svg width="32" height="32" viewBox="0 0 32 32" fill="none" xmlns="http://www.w3.org/2000/svg">
<path fill-rule="evenodd" clip-rule="evenodd" d="M11.4548 23.756C11.461 23.7624 11.4672 23.7687 11.4735 23.7749C12.115 24.4164 13.0838 24.5311 13.8423 24.1188C14.0074 24.0291 14.1625 23.9145 14.3021 23.7749C14.3055 23.7714 14.3089 23.768 14.3123 23.7646L26.0552 12.0216C26.8363 11.2406 26.8363 9.97426 26.0552 9.19321C25.2742 8.41216 24.0078 8.41216 23.2268 9.19321L12.8878 19.5322L8.55044 15.1948C7.7694 14.4138 6.50307 14.4138 5.72202 15.1948C4.94097 15.9759 4.94097 17.2422 5.72202 18.0232L11.4548 23.756Z" fill="white"/>
</svg>
