<svg width="24" height="24" viewBox="0 0 24 24" fill="none" xmlns="http://www.w3.org/2000/svg">
<path fill-rule="evenodd" clip-rule="evenodd" d="M9.75606 5.70978C9.76239 5.70751 9.77999 5.70209 9.82117 5.71797C9.86664 5.73551 9.92448 5.77435 9.97705 5.83505C10.4668 6.40058 11.1918 6.75965 12.0001 6.75965C12.8083 6.75965 13.5333 6.40058 14.0231 5.83505C14.0756 5.77435 14.1335 5.73551 14.179 5.71797C14.2201 5.70209 14.2377 5.70751 14.2441 5.70978C14.9618 5.96638 15.6231 6.34281 16.2036 6.81525C16.2086 6.81931 16.2216 6.83116 16.2306 6.87079C16.2404 6.91417 16.2413 6.97765 16.2239 7.05034C16.1756 7.25173 16.1501 7.46151 16.1501 7.67656C16.1501 9.02888 17.1534 10.1469 18.4563 10.3267C18.5923 10.8571 18.6647 11.4134 18.6647 11.9874C18.6647 12.3019 18.643 12.6111 18.6009 12.9136C17.2284 13.0276 16.1501 14.1777 16.1501 15.5797C16.1501 15.9795 16.2381 16.3602 16.3964 16.7022C16.433 16.7813 16.4449 16.858 16.4403 16.912C16.4362 16.9605 16.4219 16.9739 16.4165 16.9787C15.8419 17.4875 15.1792 17.8984 14.4545 18.1856C14.4478 18.1883 14.4288 18.1958 14.3803 18.1737C14.3261 18.149 14.2599 18.0957 14.2071 18.0187C13.7258 17.3175 12.9169 16.8558 12.0001 16.8558C11.0832 16.8558 10.2743 17.3175 9.79303 18.0187C9.74019 18.0957 9.67402 18.149 9.6198 18.1737C9.57136 18.1958 9.55229 18.1883 9.54561 18.1856C8.82092 17.8984 8.15821 17.4875 7.58364 16.9787C7.57823 16.9739 7.56397 16.9605 7.55985 16.912C7.55526 16.858 7.56711 16.7813 7.60376 16.7021C7.762 16.3601 7.85004 15.9795 7.85004 15.5797C7.85004 14.1777 6.77169 13.0276 5.39919 12.9136C5.35716 12.6111 5.33541 12.3019 5.33541 11.9874C5.33541 11.4134 5.40783 10.8571 5.54383 10.3267C6.8467 10.1469 7.85004 9.02888 7.85004 7.67656C7.85004 7.46151 7.82456 7.25173 7.77622 7.05034C7.75877 6.97765 7.75969 6.91417 7.76954 6.87079C7.77854 6.83116 7.79153 6.81931 7.79651 6.81525C8.37704 6.34281 9.03829 5.96638 9.75606 5.70978ZM4.40922 13.3137C4.47998 13.7213 4.84185 13.9443 5.17464 13.9443C6.07785 13.9443 6.81004 14.6765 6.81004 15.5797C6.81004 15.8256 6.7561 16.0575 6.6599 16.2654C6.47345 16.6684 6.40472 17.3239 6.89416 17.7573C7.55773 18.345 8.32377 18.8201 9.16242 19.1525C9.81119 19.4096 10.3873 18.9907 10.6505 18.6072C10.9461 18.1765 11.4404 17.8958 12.0001 17.8958C12.5598 17.8958 13.054 18.1765 13.3496 18.6072C13.6129 18.9907 14.1889 19.4096 14.8377 19.1525C15.6764 18.8201 16.4424 18.345 17.106 17.7573C17.5954 17.3239 17.5267 16.6684 17.3402 16.2654C17.244 16.0575 17.1901 15.8256 17.1901 15.5797C17.1901 14.6765 17.9223 13.9443 18.8255 13.9443C19.1583 13.9443 19.5201 13.7213 19.5909 13.3137C19.6657 12.8824 19.7047 12.4393 19.7047 11.9874C19.7047 11.1942 19.5847 10.4282 19.3615 9.70689C19.2871 9.46646 19.0656 9.31196 18.8255 9.31196C17.9223 9.31196 17.1901 8.57977 17.1901 7.67656C17.1901 7.54388 17.2058 7.41555 17.2352 7.29306C17.3266 6.91208 17.2943 6.36202 16.8601 6.00862C16.1895 5.46289 15.425 5.02748 14.5942 4.73048C14.0252 4.52706 13.5104 4.83843 13.2369 5.1542C12.9363 5.50135 12.4939 5.71965 12.0001 5.71965C11.5062 5.71965 11.0639 5.50135 10.7632 5.1542C10.4897 4.83843 9.97497 4.52706 9.40596 4.73048C8.57517 5.02748 7.81063 5.46288 7.14005 6.00862C6.7058 6.36202 6.6735 6.91208 6.76494 7.29306C6.79434 7.41555 6.81004 7.54388 6.81004 7.67656C6.81004 8.57977 6.07785 9.31196 5.17464 9.31196C4.93453 9.31196 4.71304 9.46645 4.63863 9.70689C4.41542 10.4282 4.29541 11.1942 4.29541 11.9874C4.29541 12.4393 4.33437 12.8824 4.40922 13.3137ZM12 9.0401C10.3873 9.0401 9.07998 10.3474 9.07998 11.9601C9.07998 13.5728 10.3873 14.8801 12 14.8801C13.6127 14.8801 14.92 13.5728 14.92 11.9601C14.92 10.3474 13.6127 9.0401 12 9.0401ZM10.12 11.9601C10.12 10.9218 10.9617 10.0801 12 10.0801C13.0383 10.0801 13.88 10.9218 13.88 11.9601C13.88 12.9984 13.0383 13.8401 12 13.8401C10.9617 13.8401 10.12 12.9984 10.12 11.9601Z" fill="#333236" fill-opacity="0.8"/>
</svg>
