<svg width="32" height="32" viewBox="0 0 32 32" fill="none" xmlns="http://www.w3.org/2000/svg">
<path fill-rule="evenodd" clip-rule="evenodd" d="M16 11C15.1716 11 14.5 10.3284 14.5 9.5C14.5 8.67157 15.1716 8 16 8C16.8284 8 17.5 8.67157 17.5 9.5C17.5 10.3284 16.8284 11 16 11ZM16 17.5C15.1716 17.5 14.5 16.8284 14.5 16C14.5 15.1716 15.1716 14.5 16 14.5C16.8284 14.5 17.5 15.1716 17.5 16C17.5 16.8284 16.8284 17.5 16 17.5ZM14.5 22.5C14.5 23.3284 15.1716 24 16 24C16.8284 24 17.5 23.3284 17.5 22.5C17.5 21.6716 16.8284 21 16 21C15.1716 21 14.5 21.6716 14.5 22.5Z" fill="#333236" fill-opacity="0.8"/>
</svg>
