<svg width="28" height="28" viewBox="0 0 28 28" fill="none" xmlns="http://www.w3.org/2000/svg">
<circle cx="14" cy="14" r="14" fill="#F3E1FD"/>
<path fill-rule="evenodd" clip-rule="evenodd" d="M12.32 7.22461C12.2434 7.22461 12.17 7.25605 12.1172 7.3116C12.0643 7.36714 12.0366 7.44193 12.0404 7.51851L12.4631 16.0201C12.4705 16.1692 12.5935 16.2862 12.7427 16.2862H15.0838C15.2334 16.2862 15.3566 16.1685 15.3635 16.019L15.7537 7.51745C15.7572 7.44104 15.7293 7.36652 15.6764 7.31121C15.6236 7.2559 15.5504 7.22461 15.474 7.22461H12.32ZM12.5802 17.5253C12.4255 17.5253 12.3002 17.6507 12.3002 17.8053V20.4334C12.3002 20.588 12.4255 20.7134 12.5802 20.7134H15.2464C15.401 20.7134 15.5264 20.588 15.5264 20.4334V17.8053C15.5264 17.6507 15.401 17.5253 15.2464 17.5253H12.5802Z" fill="#8F00FF"/>
</svg>
