<svg width="20" height="20" viewBox="0 0 20 20" fill="none" xmlns="http://www.w3.org/2000/svg">
<path d="M5.35254 7.98098C7.01675 7.98098 8.36586 6.63187 8.36586 4.96766C8.36586 3.30345 7.01675 1.95435 5.35254 1.95435C3.68833 1.95435 2.33922 3.30345 2.33922 4.96766C2.33922 6.63187 3.68833 7.98098 5.35254 7.98098Z" stroke="#888893" stroke-width="1.3" stroke-linecap="round" stroke-linejoin="round"/>
<path d="M9.70514 11.9987C9.70514 10.6595 8.7007 7.98099 5.35257 7.98099C2.00444 7.98099 1 10.6595 1 11.9987V15.5" stroke="#888893" stroke-width="1.3" stroke-linecap="round" stroke-linejoin="round"/>
<path d="M14.6471 7.98098C16.3113 7.98098 17.6604 6.63187 17.6604 4.96766C17.6604 3.30345 16.3113 1.95435 14.6471 1.95435C12.9829 1.95435 11.6338 3.30345 11.6338 4.96766C11.6338 6.63187 12.9829 7.98098 14.6471 7.98098Z" stroke="#888893" stroke-width="1.3" stroke-linecap="round" stroke-linejoin="round"/>
<path d="M10.2949 11.9987C10.2949 10.6595 11.2993 7.98099 14.6474 7.98099C17.9956 7.98099 19 10.6595 19 11.9987V15.5" stroke="#888893" stroke-width="1.3" stroke-linecap="round" stroke-linejoin="round"/>
<path d="M6 13H10M14 13H10M10 13V18" stroke="#888893" stroke-width="1.3" stroke-linecap="round"/>
</svg>
