<svg width="20" height="20" viewBox="0 0 20 20" fill="none" xmlns="http://www.w3.org/2000/svg">
<path fill-rule="evenodd" clip-rule="evenodd" d="M10.75 2C10.75 1.58578 10.4142 1.25 9.99999 1.25C9.58578 1.25 9.24999 1.58578 9.24999 2L9.24999 9.25L2 9.25C1.58578 9.25 1.25 9.58579 1.25 10C1.25 10.4142 1.58578 10.75 2 10.75L9.24999 10.75L9.24999 18C9.24999 18.4142 9.58578 18.75 9.99999 18.75C10.4142 18.75 10.75 18.4142 10.75 18L10.75 10.75H18C18.4142 10.75 18.75 10.4142 18.75 10C18.75 9.58579 18.4142 9.25 18 9.25001L10.75 9.25L10.75 2Z" fill="#333236" fill-opacity="0.8"/>
</svg>
