<svg width="18" height="18" viewBox="0 0 18 18" fill="none" xmlns="http://www.w3.org/2000/svg">
<g clip-path="url(#clip0_88_40399)">
<path fill-rule="evenodd" clip-rule="evenodd" d="M2.20507 7.87507C2.20507 4.74361 4.74361 2.20507 7.87507 2.20507C11.0065 2.20507 13.5451 4.74361 13.5451 7.87507C13.5451 11.0065 11.0065 13.5451 7.87507 13.5451C4.74361 13.5451 2.20507 11.0065 2.20507 7.87507ZM7.87507 0.945068C4.04774 0.945068 0.945068 4.04774 0.945068 7.87507C0.945068 11.7024 4.04774 14.8051 7.87507 14.8051C9.56189 14.8051 11.108 14.2024 12.3097 13.2006L16.4296 17.3205C16.6756 17.5666 17.0745 17.5666 17.3205 17.3205C17.5666 17.0745 17.5666 16.6756 17.3205 16.4296L13.2006 12.3097C14.2024 11.108 14.8051 9.56189 14.8051 7.87507C14.8051 4.04774 11.7024 0.945068 7.87507 0.945068Z" fill="#333236"/>
</g>
<defs>
<clipPath id="clip0_88_40399">
<rect width="18" height="18" fill="white"/>
</clipPath>
</defs>
</svg>
