<svg width="20" height="20" viewBox="0 0 20 20" fill="none" xmlns="http://www.w3.org/2000/svg">
<path d="M13.9993 7.24514H14.4273C15.5319 7.24514 16.4273 6.34971 16.4273 5.24514V3.87402C16.4273 2.76945 15.5319 1.87402 14.4273 1.87402H5.57245C4.46788 1.87402 3.57245 2.76945 3.57245 3.87402V5.24514C3.57245 6.34971 4.46788 7.24514 5.57245 7.24514H6.00051M13.9993 7.24514H6.00051M13.9993 7.24514V10.4824M6.00051 7.24514V10.4824M6.00051 10.4824H3.46795C2.69741 10.4824 2.07277 11.107 2.07277 11.8776V11.8776C2.07277 12.6481 2.69741 13.2727 3.46795 13.2727H5.25067M6.00051 10.4824H13.9993M13.9993 10.4824H16.5318C17.3024 10.4824 17.927 11.107 17.927 11.8776V11.8776C17.927 12.6481 17.3024 13.2727 16.5318 13.2727H14.7491M14.7491 13.2727V17.8542M14.7491 13.2727H5.25067M5.25067 13.2727V17.8542" stroke="#888893" stroke-width="1.3" stroke-linecap="round"/>
</svg>
