<svg width="14" height="14" viewBox="0 0 14 14" fill="none" xmlns="http://www.w3.org/2000/svg">
<path fill-rule="evenodd" clip-rule="evenodd" d="M5.17312 1.53948C5.34385 1.35496 5.62234 1.35316 5.79514 1.53546C5.85492 1.59854 5.89423 1.67538 5.91299 1.75656C5.93114 1.80569 5.94105 1.85881 5.94105 1.91424V12.0047C5.94105 12.256 5.73734 12.4597 5.48605 12.4597C5.23477 12.4597 5.03105 12.256 5.03105 12.0047L5.03105 3.02958L2.36271 5.91359C2.19199 6.09811 1.9135 6.09991 1.7407 5.9176C1.56789 5.7353 1.56621 5.43792 1.73694 5.2534L5.17312 1.53948ZM8.08613 1.91418C8.08613 1.66289 8.28984 1.45918 8.54113 1.45918C8.79242 1.45918 8.99613 1.66289 8.99613 1.91418V10.8546L11.6663 8.00329C11.8381 7.81987 12.1166 7.81987 12.2883 8.00329C12.4601 8.18671 12.4601 8.48409 12.2883 8.66751L8.89266 12.2935C8.88022 12.3086 8.86683 12.3229 8.85257 12.3363L8.85214 12.3368C8.68037 12.5202 8.40188 12.5202 8.23012 12.3368L8.2297 12.3363C8.14132 12.2533 8.08613 12.1354 8.08613 12.0046L8.08613 1.91418Z" fill="#333236" fill-opacity="0.6"/>
</svg>
