<svg width="14" height="14" viewBox="0 0 14 14" fill="none" xmlns="http://www.w3.org/2000/svg">
<path fill-rule="evenodd" clip-rule="evenodd" d="M5.17325 1.53948C5.34397 1.35496 5.62246 1.35316 5.79526 1.53546C5.85505 1.59854 5.89435 1.67538 5.91312 1.75656C5.93126 1.80569 5.94118 1.85881 5.94118 1.91424V12.0047C5.94118 12.256 5.73747 12.4597 5.48618 12.4597C5.23489 12.4597 5.03118 12.256 5.03118 12.0047L5.03118 3.02958L2.36283 5.91359C2.19211 6.09811 1.91362 6.09991 1.74082 5.9176C1.56802 5.7353 1.56633 5.43792 1.73706 5.2534L5.17325 1.53948ZM8.08625 1.91418C8.08625 1.66289 8.28996 1.45918 8.54125 1.45918C8.79254 1.45918 8.99625 1.66289 8.99625 1.91418V10.8546L11.6664 8.00329C11.8382 7.81987 12.1167 7.81987 12.2885 8.00329C12.4602 8.18671 12.4602 8.48409 12.2885 8.66751L8.89278 12.2935C8.88034 12.3086 8.86695 12.3229 8.85269 12.3363L8.85226 12.3368C8.6805 12.5202 8.40201 12.5202 8.23024 12.3368L8.22982 12.3363C8.14145 12.2533 8.08625 12.1354 8.08625 12.0046L8.08625 1.91418Z" fill="#333236" fill-opacity="0.6"/>
</svg>
