<svg width="20" height="20" viewBox="0 0 20 20" fill="none" xmlns="http://www.w3.org/2000/svg">
<path d="M14.1667 17.5V15.8333C14.1667 14.9493 13.8155 14.1014 13.1904 13.4763C12.5652 12.8512 11.7174 12.5 10.8333 12.5H4.16668C3.28262 12.5 2.43478 12.8512 1.80965 13.4763C1.18453 14.1014 0.833344 14.9493 0.833344 15.8333V17.5" stroke="current" stroke-width="1.3" stroke-linecap="round" stroke-linejoin="round"/>
<path d="M7.49999 9.16667C9.34094 9.16667 10.8333 7.67428 10.8333 5.83333C10.8333 3.99238 9.34094 2.5 7.49999 2.5C5.65904 2.5 4.16666 3.99238 4.16666 5.83333C4.16666 7.67428 5.65904 9.16667 7.49999 9.16667Z" stroke="current" stroke-width="1.3" stroke-linecap="round" stroke-linejoin="round"/>
<path d="M19.1667 17.5001V15.8334C19.1661 15.0948 18.9203 14.3774 18.4678 13.7937C18.0153 13.2099 17.3818 12.793 16.6667 12.6084" stroke="current" stroke-width="1.3" stroke-linecap="round" stroke-linejoin="round"/>
<path d="M13.3333 2.6084C14.0504 2.79198 14.6859 3.20898 15.1397 3.79366C15.5935 4.37833 15.8399 5.09742 15.8399 5.83757C15.8399 6.57771 15.5935 7.2968 15.1397 7.88147C14.6859 8.46615 14.0504 8.88315 13.3333 9.06673" stroke="current" stroke-width="1.3" stroke-linecap="round" stroke-linejoin="round"/>
</svg>
