<svg width="24" height="24" viewBox="0 0 24 24" fill="none" xmlns="http://www.w3.org/2000/svg">
<path fill-rule="evenodd" clip-rule="evenodd" d="M2.75446 3.63019C2.93685 3.4478 3.20339 3.31286 3.77045 3.23662C4.35995 3.15736 5.14655 3.15571 6.29997 3.15571H17.6285C18.7819 3.15571 19.5685 3.15736 20.158 3.23662C20.7251 3.31286 20.9916 3.4478 21.174 3.63019C21.3564 3.81258 21.4913 4.07913 21.5676 4.64619C21.6468 5.23568 21.6485 6.02228 21.6485 7.1757V13.8534C21.6485 15.0068 21.6468 15.7934 21.5676 16.3829C21.4913 16.95 21.3564 17.2165 21.174 17.3989C20.9954 17.5775 20.7365 17.7103 20.1953 17.7874C19.6314 17.8676 18.8787 17.8732 17.7776 17.8734C17.3469 17.8735 16.9978 18.2227 16.9978 18.6534V20.9715L13.778 18.0737C13.6348 17.9448 13.4489 17.8734 13.2562 17.8734H6.29997C5.14655 17.8734 4.35995 17.8718 3.77045 17.7925C3.20339 17.7163 2.93685 17.5813 2.75446 17.3989C2.57207 17.2165 2.43712 16.95 2.36089 16.3829C2.28163 15.7934 2.27997 15.0068 2.27997 13.8534V7.17571C2.27997 6.02228 2.28163 5.23569 2.36089 4.64619C2.43712 4.07913 2.57207 3.81258 2.75446 3.63019ZM6.29997 1.5957L6.24473 1.5957C5.16039 1.59568 4.26825 1.59565 3.56259 1.69053C2.82254 1.79003 2.17192 2.00655 1.65137 2.52711C1.13082 3.04766 0.914293 3.69827 0.814796 4.43832C0.719922 5.14398 0.719945 6.03612 0.719972 7.12046L0.719973 7.17571V13.8534L0.719972 13.9087C0.719945 14.993 0.719922 15.8852 0.814796 16.5908C0.914293 17.3309 1.13082 17.9815 1.65137 18.502C2.17192 19.0226 2.82254 19.2391 3.56259 19.3386C4.26824 19.4335 5.16038 19.4335 6.24472 19.4334H6.24475H6.29997H12.9569L16.8554 22.9421C17.5118 23.5329 18.5578 23.0671 18.5578 22.184V19.4313C19.278 19.4258 19.8965 19.4056 20.4152 19.3318C21.1351 19.2293 21.7683 19.0108 22.2771 18.502C22.7976 17.9815 23.0142 17.3309 23.1136 16.5908C23.2085 15.8851 23.2085 14.993 23.2085 13.9087V13.9086V13.8534V7.1757V7.12049V7.12046C23.2085 6.03612 23.2085 5.14398 23.1136 4.43832C23.0142 3.69827 22.7976 3.04766 22.2771 2.52711C21.7565 2.00655 21.1059 1.79003 20.3659 1.69053C19.6602 1.59565 18.7681 1.59568 17.6837 1.5957L17.6285 1.5957H6.29997ZM7.3134 11.6773C7.95554 11.6773 8.47609 11.1567 8.47609 10.5146C8.47609 9.87243 7.95554 9.35188 7.3134 9.35188C6.67126 9.35188 6.1507 9.87243 6.1507 10.5146C6.1507 11.1567 6.67126 11.6773 7.3134 11.6773ZM11.9642 11.6773C12.6063 11.6773 13.1269 11.1567 13.1269 10.5146C13.1269 9.87246 12.6063 9.3519 11.9642 9.3519C11.322 9.3519 10.8015 9.87246 10.8015 10.5146C10.8015 11.1567 11.322 11.6773 11.9642 11.6773ZM17.7777 10.5146C17.7777 11.1567 17.2571 11.6773 16.615 11.6773C15.9728 11.6773 15.4523 11.1567 15.4523 10.5146C15.4523 9.87246 15.9728 9.3519 16.615 9.3519C17.2571 9.3519 17.7777 9.87246 17.7777 10.5146Z" fill="#333236"/>
</svg>
